<svg width="128" height="128" viewBox="0 0 128 128" fill="none" xmlns="http://www.w3.org/2000/svg">
<rect width="128" height="128" fill="white"/>
<g clip-path="url(#clip0_0_1)">
<rect width="128" height="128" fill="black"/>
<path d="M0 26L134 25" stroke="white"/>
<path d="M0 26L134 25" stroke="white"/>
<path d="M0 26L134 25" stroke="white"/>
<path d="M0 26L134 25" stroke="white"/>
<path d="M0 26L134 25" stroke="white"/>
<path d="M0 26L134 25" stroke="white"/>
<path d="M0 41H134" stroke="white"/>
<path d="M0 41H134" stroke="white"/>
<path d="M0 41H134" stroke="white"/>
<path d="M0 41H134" stroke="white"/>
<path d="M0 41H134" stroke="white"/>
<path d="M0 41H134" stroke="white"/>
<path d="M0 57H134" stroke="white"/>
<path d="M0 57H134" stroke="white"/>
<path d="M0 57H134" stroke="white"/>
<path d="M0 57H134" stroke="white"/>
<path d="M0 57H134" stroke="white"/>
<path d="M0 57H134" stroke="white"/>
<path d="M0 75H134" stroke="white"/>
<path d="M0 75H134" stroke="white"/>
<path d="M0 75H134" stroke="white"/>
<path d="M0 75H134" stroke="white"/>
<path d="M0 75H134" stroke="white"/>
<path d="M0 75H134" stroke="white"/>
<path d="M0 93H134" stroke="white"/>
<path d="M0 93H134" stroke="white"/>
<path d="M0 93H134" stroke="white"/>
<path d="M0 93H134" stroke="white"/>
<path d="M0 93H134" stroke="white"/>
<path d="M0 93H134" stroke="white"/>
<path d="M0 110H134" stroke="white"/>
<path d="M0 110H134" stroke="white"/>
<path d="M0 110H134" stroke="white"/>
<path d="M0 110H134" stroke="white"/>
<path d="M0 110H134" stroke="white"/>
<path d="M0 110H134" stroke="white"/>
<path d="M22 0L22 128" stroke="white"/>
<path d="M22 0L22 128" stroke="white"/>
<path d="M22 0L22 128" stroke="white"/>
<path d="M22 0L22 128" stroke="white"/>
<path d="M22 0L22 128" stroke="white"/>
<path d="M22 0L22 128" stroke="white"/>
<path d="M6 0L6 128" stroke="white"/>
<path d="M6 0L6 128" stroke="white"/>
<path d="M6 0L6 128" stroke="white"/>
<path d="M6 0L6 128" stroke="white"/>
<path d="M6 0L6 128" stroke="white"/>
<path d="M6 0L6 128" stroke="white"/>
<path d="M41 0L41 128" stroke="white"/>
<path d="M41 0L41 128" stroke="white"/>
<path d="M41 0L41 128" stroke="white"/>
<path d="M41 0L41 128" stroke="white"/>
<path d="M41 0L41 128" stroke="white"/>
<path d="M41 0L41 128" stroke="white"/>
<path d="M60 0L60 128" stroke="white"/>
<path d="M60 0L60 128" stroke="white"/>
<path d="M60 0L60 128" stroke="white"/>
<path d="M60 0L60 128" stroke="white"/>
<path d="M60 0L60 128" stroke="white"/>
<path d="M60 0L60 128" stroke="white"/>
<path d="M78.5 0.500002L78.5 128.5M116 0.499996L116 128.5M97.5 0.499999L97.5 128.5" stroke="white"/>
<path d="M78.5 0.500002L78.5 128.5M116 0.499996L116 128.5M97.5 0.499999L97.5 128.5" stroke="white"/>
<path d="M78.5 0.500002L78.5 128.5M116 0.499996L116 128.5M97.5 0.499999L97.5 128.5" stroke="white"/>
<path d="M78.5 0.500002L78.5 128.5M116 0.499996L116 128.5M97.5 0.499999L97.5 128.5" stroke="white"/>
<path d="M78.5 0.500002L78.5 128.5M116 0.499996L116 128.5M97.5 0.499999L97.5 128.5" stroke="white"/>
<path d="M78.5 0.500002L78.5 128.5M116 0.499996L116 128.5M97.5 0.499999L97.5 128.5" stroke="white"/>
<path d="M0 10L134 10" stroke="white"/>
<path d="M0 10L134 10" stroke="white"/>
<path d="M0 10L134 10" stroke="white"/>
<path d="M0 10L134 10" stroke="white"/>
<path d="M0 10L134 10" stroke="white"/>
<path d="M0 10L134 10" stroke="white"/>
<rect x="14" y="14" width="20" height="17" fill="#F66ECA"/>
<rect x="34" y="14" width="20" height="17" fill="#D26DD3"/>
<rect x="54" y="14" width="20" height="17" fill="#947ECB"/>
<rect x="74" y="14" width="20" height="17" fill="#629CAD"/>
<rect x="94" y="14" width="20" height="17" fill="#56B995"/>
<rect x="14" y="97" width="20" height="17" fill="#D88A65"/>
<rect x="34" y="97" width="20" height="17" fill="#CF8964"/>
<rect x="54" y="97" width="20" height="17" fill="#CD8862"/>
<rect x="74" y="97" width="20" height="17" fill="#B49364"/>
<rect x="94" y="97" width="20" height="17" fill="#A19F64"/>
<rect x="34" y="31" width="16" height="20" transform="rotate(90 34 31)" fill="#ED72B7"/>
<rect x="34" y="47" width="17" height="20" transform="rotate(90 34 47)" fill="#E77A91"/>
<rect x="34" y="64" width="17" height="20" transform="rotate(90 34 64)" fill="#E38378"/>
<rect x="34" y="81" width="16" height="20" transform="rotate(90 34 81)" fill="#D78966"/>
<rect x="114" y="31" width="16" height="20" transform="rotate(90 114 31)" fill="#60B588"/>
<rect x="114" y="47" width="17" height="20" transform="rotate(90 114 47)" fill="#78AD75"/>
<rect x="114" y="64" width="17" height="20" transform="rotate(90 114 64)" fill="#87A76F"/>
<rect x="114" y="81" width="16" height="20" transform="rotate(90 114 81)" fill="#97A167"/>
</g>
<defs>
<clipPath id="clip0_0_1">
<rect width="128" height="128" fill="white"/>
</clipPath>
</defs>
</svg>
